<?xml version="1.0" encoding="UTF-8"?>
<svg id="Layer_2" data-name="Layer 2" xmlns="http://www.w3.org/2000/svg" xmlns:xlink="http://www.w3.org/1999/xlink" viewBox="0 0 1589.62 331.97">
  <defs>
    <style>
      .cls-1 {
        fill: none;
      }

      .cls-2, .cls-3 {
        isolation: isolate;
      }

      .cls-3 {
        fill: #b0fb00;
        opacity: .72;
      }

      .cls-4 {
        clip-path: url(#clippath);
      }
    </style>
    <clipPath id="clippath">
      <path class="cls-1" d="M1493.09,241.92c2.09-1.8,3.9-3.71,5.91-5.68,2.19-2.15,4.92-3.3,6.58-4.81,10.57-9.62,13.53-28.12,21.04-40.5,5-8.23,11.69-16.75,15.83-25.32,4.27-8.85,3.44-18.76,9.62-27.13,2.36-3.19,5.41-6.04,6.61-9.83,1.88-5.93-1.21-12.94,1.84-18.37,1.86-3.3,5.5-5.07,8.61-7.22,21.59-14.95,26.07-47.53,13.68-69.17-16.46-28.75-48.05-25.27-76.09-20.76-38.74,6.22-79.19-.56-118.3-2.73-79.06-4.52-158.52-6.06-237.83-6.74-13.09-.11-26.18-.31-39.26-.57C878.22-1.52,642.83-1.36,409.46,6.26c-54.14,1.77-108.28,3.54-162.42,5.31-27.37.89-54.74,1.79-82.1,2.68-24.36.8-49.86-.45-73.94,2.1-9.67,1.02-17.21.52-24.4,8.76-5.49,6.29-7.81,15.21-6.09,23.37,1.5,7.12,5.76,14.91,1.88,21.07-3.65,5.81-13.02,6.79-15.2,13.3-1.28,3.84.6,8.01.26,12.04-.39,4.73-3.77,7.19-5.75,11.08-2.93,5.76-4.61,12.58-6.72,18.68-4.47,12.93-8.64,25.96-12.5,39.09-8.89,30.2-18.05,61.76-21.67,93.09-2.42,21.4-.33,43.04,19.5,54.71,19.84,11.67,44.78,13.32,67.26,13.5,117.74.92,235.48-1.43,353.18-4.2,67.56-1.59,135.12.06,202.38-2.97,107.55-4.84,216.31-1.16,323.76,3.79,115.53,5.4,230.1,12.7,345.9,9.56,17.98-.49,35.83-.15,53.7-1.5,19.95-1.54,39.86-5.12,58.74-11.85,21.13-7.53,38.87-22.16,45.12-45.04,1.45-5.31,2.16-10.96,5.02-15.66,3.8-6.27,10.42-9.54,16.04-13.87.58-.45,1.13-.9,1.67-1.36v-.02Z"/>
    </clipPath>
  </defs>
  <g id="Layer_1-2" data-name="Layer 1">
    <g class="cls-2">
      <g id="Layer_2-2" data-name="Layer 2">
        <g id="Layer_1-2" data-name="Layer 1-2">
          <g class="cls-4">
            <path class="cls-3" d="M1493.09,241.92c2.09-1.8,3.9-3.71,5.91-5.68,2.19-2.15,4.92-3.3,6.58-4.81,10.57-9.62,13.53-28.12,21.04-40.5,5-8.23,11.69-16.75,15.83-25.32,4.27-8.85,3.44-18.76,9.62-27.13,2.36-3.19,5.41-6.04,6.61-9.83,1.88-5.93-1.21-12.94,1.84-18.37,1.86-3.3,5.5-5.07,8.61-7.22,21.59-14.95,26.07-47.53,13.68-69.17-16.46-28.75-48.05-25.27-76.09-20.76-38.74,6.22-79.19-.56-118.3-2.73-79.06-4.52-158.52-6.06-237.83-6.74-13.09-.11-26.18-.31-39.26-.57C878.22-1.52,642.83-1.36,409.46,6.26c-54.14,1.77-108.28,3.54-162.42,5.31-27.37.89-54.74,1.79-82.1,2.68-24.36.8-49.86-.45-73.94,2.1-9.67,1.02-17.21.52-24.4,8.76-5.49,6.29-7.81,15.21-6.09,23.37,1.5,7.12,5.76,14.91,1.88,21.07-3.65,5.81-13.02,6.79-15.2,13.3-1.28,3.84.6,8.01.26,12.04-.39,4.73-3.77,7.19-5.75,11.08-2.93,5.76-4.61,12.58-6.72,18.68-4.47,12.93-8.64,25.96-12.5,39.09-8.89,30.2-18.05,61.76-21.67,93.09-2.42,21.4-.33,43.04,19.5,54.71,19.84,11.67,44.78,13.32,67.26,13.5,117.74.92,235.48-1.43,353.18-4.2,67.56-1.59,135.12.06,202.38-2.97,107.55-4.84,216.31-1.16,323.76,3.79,115.53,5.4,230.1,12.7,345.9,9.56,17.98-.49,35.83-.15,53.7-1.5,19.95-1.54,39.86-5.12,58.74-11.85,21.13-7.53,38.87-22.16,45.12-45.04,1.45-5.31,2.16-10.96,5.02-15.66,3.8-6.27,10.42-9.54,16.04-13.87.58-.45,1.13-.9,1.67-1.36v-.02Z"/>
          </g>
        </g>
      </g>
    </g>
  </g>
</svg>