<svg width="510" height="130" viewBox="0 0 510 130" fill="none" xmlns="http://www.w3.org/2000/svg">
<g clip-path="url(#clip0_1_4)">
<path d="M391.04 130H416.54L505.75 1.44995H480.25L391.04 130Z" fill="#C0F851"/>
<path d="M509.68 80.82H482.75L428.48 1.44995H455.41L509.68 80.82Z" fill="black"/>
<path d="M0 55.6H23.8C24.58 61.94 29.47 64.94 37.14 64.94C41.7 64.94 47.26 63.16 47.26 58.38C47.26 53.6 41.92 52.37 32.14 49.93C18.8 46.59 2.67 42.03 2.67 25.13C2.67 6.89 17.57 0 35.47 0C51.93 0 67.05 6.89 67.39 24.24H44.37C43.7 19.9 40.59 17.12 34.25 17.12C29.14 17.12 25.58 19.46 25.58 22.68C25.58 27.35 32.36 28.02 44.26 30.91C57.6 34.14 70.95 39.36 70.95 56.26C70.95 73.16 55.49 82.84 36.7 82.84C16.01 82.85 0.33 73.95 0 55.6Z" fill="black"/>
<path d="M74.17 41.48C74.17 17.68 89.74 0 114.43 0C139.12 0 154.91 17.68 154.91 41.48C154.91 65.28 139.12 82.85 114.43 82.85C89.74 82.85 74.17 65.28 74.17 41.48ZM131.33 41.48C131.33 28.47 125.66 18.57 114.54 18.57C103.42 18.57 97.75 28.47 97.75 41.48C97.75 54.49 103.42 64.28 114.54 64.28C125.66 64.28 131.33 54.49 131.33 41.48Z" fill="black"/>
<path d="M160.8 50.5999V1.44995H184.04V51.9399C184.04 59.2799 188.04 63.84 196.61 63.84C204.5 63.84 208.51 58.72 208.51 51.5V1.44995H231.75V50.5999C231.75 70.17 220.07 82.4 196.28 82.4C172.49 82.4 160.81 70.4999 160.81 50.5999H160.8Z" fill="black"/>
<path d="M240.76 1.44995H280.24C296.48 1.44995 310.27 8.89995 310.27 25.1399C310.27 34.2599 305.6 40.71 297.26 44.49V44.82C303.71 47.27 307.05 51.7099 308.38 57.9399C310.49 67.4999 308.71 78.96 311.61 79.74V80.96H288.7C286.48 79.4 287.37 69.6199 285.7 62.5C284.25 56.38 281.59 53.27 274.8 53.27H264.01V80.96H240.77V1.44995H240.76ZM264 36.7H276.46C283.13 36.7 286.8 33.81 286.8 28.25C286.8 23.02 283.46 19.69 276.79 19.69H264V36.7Z" fill="black"/>
<path d="M314.49 41.48C314.49 17.68 330.84 0 354.75 0C363.42 0 371.21 2.22 376.99 6.23C385.22 11.9 390 20.8 391 30.92H367.76C367.2 24.69 361.98 19.13 354.42 19.13C343.41 19.13 338.07 28.47 338.07 41.48C338.07 54.49 344.3 63.83 354.64 63.83C362.76 63.83 367.65 58.49 368.43 51.38H391.89C391.22 60.17 387.22 67.95 381.55 73.4C374.77 79.96 366.31 82.85 354.75 82.85C330.51 82.85 314.49 65.28 314.49 41.48Z" fill="black"/>
<path d="M397.56 1.44995H420.8V80.96H397.56V1.44995Z" fill="black"/>
</g>
<defs>
<clipPath id="clip0_1_4">
<rect width="509.68" height="130" fill="white"/>
</clipPath>
</defs>
</svg>
